<svg aria-hidden="true" style="position: absolute; width: 0; height: 0; overflow: hidden;" version="1.1" xmlns="http://www.w3.org/2000/svg" xmlns:xlink="http://www.w3.org/1999/xlink">
<defs>
<symbol id="home" viewBox="0 0 64 64" >
<path d="M64 36.903l-32-24.839-32 24.839v-10.127l32-24.839 32 24.839zM56 36v24h-16v-16h-16v16h-16v-24l24-18z"></path>
</symbol>
<symbol id="image" viewBox="0 0 64 64">
<path d="M59.993 8c0.002 0.002 0.005 0.005 0.007 0.007v47.986c-0.002 0.002-0.005 0.005-0.007 0.007h-55.986c-0.003-0.002-0.005-0.005-0.007-0.007v-47.986c0.002-0.002 0.005-0.005 0.007-0.007h55.986zM60 4h-56c-2.2 0-4 1.8-4 4v48c0 2.2 1.8 4 4 4h56c2.2 0 4-1.8 4-4v-48c0-2.2-1.8-4-4-4v0z"></path>
<path d="M52 18c0 3.314-2.686 6-6 6s-6-2.686-6-6 2.686-6 6-6 6 2.686 6 6z"></path>
<path d="M56 52h-48v-8l14-24 16 20h4l14-12z"></path>
</symbol>
<symbol id="file-picture" viewBox="0 0 64 64">
<path d="M52 56h-40v-8l12-20 16.438 20 11.563-8v16z"></path>
<path d="M52 30c0 3.314-2.686 6-6 6s-6-2.686-6-6 2.686-6 6-6c3.314 0 6 2.686 6 6z"></path>
<path d="M57.363 14.317c-1.388-1.893-3.323-4.106-5.449-6.231s-4.338-4.060-6.231-5.449c-3.223-2.364-4.787-2.637-5.683-2.637h-31c-2.757 0-5 2.243-5 5v54c0 2.757 2.243 5 5 5h46c2.757 0 5-2.243 5-5v-39c0-0.896-0.273-2.459-2.637-5.683zM49.086 10.914c1.919 1.919 3.425 3.65 4.536 5.086h-9.622v-9.622c1.437 1.111 3.167 2.617 5.086 4.536zM56 59c0 0.542-0.458 1-1 1h-46c-0.542 0-1-0.458-1-1v-54c0-0.542 0.458-1 1-1 0 0 30.997-0 31 0v14c0 1.105 0.895 2 2 2h14v39z"></path>
</symbol>
<symbol id="cart" viewBox="0 0 64 64" >
<path d="M24 58c0 3.314-2.686 6-6 6s-6-2.686-6-6c0-3.314 2.686-6 6-6s6 2.686 6 6z"></path>
<path d="M64 58c0 3.314-2.686 6-6 6s-6-2.686-6-6c0-3.314 2.686-6 6-6s6 2.686 6 6z"></path>
<path d="M64 32v-24h-48c0-2.209-1.791-4-4-4h-12v4h8l3.005 25.753c-1.831 1.466-3.005 3.719-3.005 6.247 0 4.419 3.582 8 8 8h48v-4h-48c-2.209 0-4-1.791-4-4 0-0.014 0.001-0.027 0.001-0.041l51.999-7.959z"></path>
</symbol>
<symbol id="alarm" viewBox="0 0 64 64">
<path d="M32 8c-15.464 0-28 12.536-28 28s12.536 28 28 28 28-12.536 28-28-12.536-28-28-28zM32 58.5c-12.427 0-22.5-10.074-22.5-22.5s10.073-22.5 22.5-22.5c12.426 0 22.5 10.073 22.5 22.5s-10.074 22.5-22.5 22.5zM58.424 17.948c1.003-1.753 1.576-3.784 1.576-5.948 0-6.628-5.373-12-12-12-3.864 0-7.3 1.826-9.495 4.662 8.243 1.702 15.325 6.575 19.919 13.286v0zM25.495 4.662c-2.195-2.836-5.631-4.662-9.495-4.662-6.628 0-12 5.372-12 12 0 2.165 0.573 4.195 1.576 5.948 4.594-6.711 11.676-11.584 19.919-13.286z"></path>
<path d="M32 36v-16h-4v20h16v-4z"></path>
</symbol>
<symbol id="laptop" viewBox="0 0 64 64">
<path d="M56 44v-32c0-2.2-1.8-4-4-4h-40c-2.2 0-4 1.8-4 4v32h-8v12h64v-12h-8zM40 52h-16v-4h16v4zM52 44h-40v-31.993c0.002-0.002 0.005-0.005 0.007-0.007h39.986c0.002 0.002 0.005 0.005 0.007 0.007v31.993z"></path>
</symbol>
<symbol id="search" viewBox="0 0 64 64">
<path d="M62.016 54.462l-15.16-12.893c-1.567-1.41-3.243-2.058-4.597-1.995 3.578-4.192 5.74-9.63 5.74-15.573 0-13.255-10.745-24-24-24s-24 10.745-24 24 10.745 24 24 24c5.944 0 11.382-2.162 15.574-5.74-0.063 1.354 0.585 3.030 1.995 4.597l12.893 15.16c2.208 2.453 5.814 2.66 8.014 0.46s1.993-5.806-0.46-8.014zM24 40c-8.836 0-16-7.163-16-16s7.163-16 16-16 16 7.163 16 16-7.163 16-16 16z"></path>
</symbol>
<symbol id="equalizer" viewBox="0 0 64 64">
<path d="M28 8v-1c0-1.65-1.35-3-3-3h-10c-1.65 0-3 1.35-3 3v1h-12v8h12v1c0 1.65 1.35 3 3 3h10c1.65 0 3-1.35 3-3v-1h36v-8h-36zM16 16v-8h8v8h-8zM52 27c0-1.65-1.35-3-3-3h-10c-1.65 0-3 1.35-3 3v1h-36v8h36v1c0 1.65 1.35 3 3 3h10c1.65 0 3-1.35 3-3v-1h12v-8h-12v-1zM40 36v-8h8v8h-8zM28 47c0-1.65-1.35-3-3-3h-10c-1.65 0-3 1.35-3 3v1h-12v8h12v1c0 1.65 1.35 3 3 3h10c1.65 0 3-1.35 3-3v-1h36v-8h-36v-1zM16 56v-8h8v8h-8z"></path>
</symbol>
<symbol id="facebook" viewBox="0 0 64 64">
<path d="M38 12h10v-12h-10c-7.72 0-14 6.28-14 14v6h-8v12h8v32h12v-32h10l2-12h-12v-6c0-1.084 0.916-2 2-2z"></path>
</symbol>
<symbol id="instagram" viewBox="0 0 64 64">
<path d="M32 5.763c8.55 0 9.563 0.037 12.925 0.188 3.125 0.138 4.813 0.662 5.938 1.1 1.487 0.575 2.563 1.275 3.675 2.387 1.125 1.125 1.813 2.188 2.4 3.675 0.438 1.125 0.962 2.825 1.1 5.938 0.15 3.375 0.188 4.387 0.188 12.925s-0.038 9.563-0.188 12.925c-0.138 3.125-0.663 4.813-1.1 5.938-0.575 1.487-1.275 2.563-2.388 3.675-1.125 1.125-2.188 1.813-3.675 2.4-1.125 0.438-2.825 0.962-5.938 1.1-3.375 0.15-4.388 0.188-12.925 0.188s-9.563-0.038-12.925-0.188c-3.125-0.138-4.813-0.663-5.938-1.1-1.488-0.575-2.563-1.275-3.675-2.388-1.125-1.125-1.813-2.188-2.4-3.675-0.438-1.125-0.963-2.825-1.1-5.938-0.15-3.375-0.188-4.388-0.188-12.925s0.037-9.563 0.188-12.925c0.138-3.125 0.662-4.813 1.1-5.938 0.575-1.488 1.275-2.563 2.388-3.675 1.125-1.125 2.188-1.813 3.675-2.4 1.125-0.438 2.825-0.963 5.938-1.1 3.363-0.15 4.375-0.188 12.925-0.188zM32 0c-8.688 0-9.775 0.037-13.188 0.188-3.4 0.15-5.738 0.7-7.762 1.488-2.113 0.825-3.9 1.913-5.675 3.7-1.788 1.775-2.875 3.563-3.7 5.662-0.787 2.037-1.337 4.362-1.488 7.763-0.15 3.425-0.188 4.512-0.188 13.2s0.037 9.775 0.188 13.188c0.15 3.4 0.7 5.737 1.488 7.763 0.825 2.112 1.913 3.9 3.7 5.675 1.775 1.775 3.562 2.875 5.663 3.688 2.037 0.788 4.363 1.337 7.762 1.487 3.413 0.15 4.5 0.188 13.188 0.188s9.775-0.038 13.187-0.188c3.4-0.15 5.737-0.7 7.763-1.487 2.1-0.813 3.888-1.913 5.663-3.688s2.875-3.563 3.688-5.663c0.788-2.038 1.337-4.362 1.487-7.763 0.15-3.413 0.188-4.5 0.188-13.188s-0.038-9.775-0.188-13.188c-0.15-3.4-0.7-5.738-1.487-7.762-0.788-2.125-1.875-3.912-3.663-5.688-1.775-1.775-3.563-2.875-5.663-3.688-2.038-0.787-4.362-1.337-7.763-1.488-3.425-0.163-4.513-0.2-13.2-0.2v0z"></path>
<path d="M32 15.563c-9.075 0-16.438 7.363-16.438 16.438s7.363 16.438 16.438 16.438 16.438-7.362 16.438-16.438c0-9.075-7.362-16.438-16.438-16.438zM32 42.663c-5.887 0-10.663-4.775-10.663-10.663s4.775-10.663 10.663-10.663c5.888 0 10.663 4.775 10.663 10.663s-4.775 10.663-10.663 10.663z"></path>
<path d="M52.925 14.912c0 2.119-1.718 3.838-3.837 3.838s-3.837-1.718-3.837-3.838c0-2.119 1.718-3.838 3.837-3.838s3.837 1.718 3.837 3.838z"></path>
</symbol>
<symbol id="twitter" viewBox="0 0 64 64">
<path d="M64 14.15c-2.35 1.050-4.888 1.75-7.538 2.062 2.712-1.625 4.788-4.2 5.775-7.262-2.538 1.5-5.35 2.6-8.337 3.188-2.4-2.55-5.813-4.138-9.587-4.138-7.25 0-13.125 5.875-13.125 13.125 0 1.025 0.113 2.025 0.337 2.988-10.913-0.55-20.587-5.775-27.063-13.725-1.125 1.938-1.775 4.2-1.775 6.6 0 4.55 2.312 8.575 5.838 10.925-2.15-0.063-4.175-0.663-5.95-1.637 0 0.050 0 0.113 0 0.163 0 6.363 4.525 11.675 10.537 12.875-1.1 0.3-2.262 0.462-3.463 0.462-0.85 0-1.662-0.087-2.475-0.237 1.675 5.212 6.525 9.012 12.262 9.125-4.5 3.525-10.15 5.625-16.313 5.625-1.063 0-2.1-0.063-3.138-0.188 5.825 3.737 12.725 5.9 20.137 5.9 24.15 0 37.362-20.013 37.362-37.362 0-0.575-0.013-1.137-0.038-1.7 2.563-1.837 4.788-4.15 6.55-6.787z"></path>
</symbol>
<symbol id="pinterest2" viewBox="0 0 64 64">
<path d="M32 0c-17.65 0-32 14.35-32 32s14.35 32 32 32 32-14.35 32-32-14.35-32-32-32zM32 59.725c-2.863 0-5.613-0.438-8.212-1.237 1.125-1.837 2.825-4.862 3.45-7.263 0.337-1.3 1.725-6.587 1.725-6.587 0.9 1.725 3.55 3.188 6.35 3.188 8.362 0 14.388-7.688 14.388-17.25 0-9.163-7.475-16.012-17.087-16.012-11.962 0-18.313 8.037-18.313 16.775 0 4.063 2.163 9.125 5.625 10.738 0.525 0.25 0.8 0.138 0.925-0.375 0.087-0.388 0.563-2.263 0.775-3.15 0.063-0.275 0.038-0.525-0.188-0.8-1.15-1.388-2.063-3.95-2.063-6.325 0-6.113 4.625-12.037 12.512-12.037 6.813 0 11.575 4.637 11.575 11.275 0 7.5-3.788 12.7-8.712 12.7-2.725 0-4.762-2.25-4.1-5.013 0.788-3.3 2.3-6.85 2.3-9.225 0-2.125-1.137-3.9-3.512-3.9-2.788 0-5.012 2.875-5.012 6.738 0 2.45 0.825 4.113 0.825 4.113s-2.75 11.613-3.25 13.775c-0.563 2.4-0.337 5.763-0.1 7.95-10.313-4.025-17.625-14.050-17.625-25.8 0-15.313 12.412-27.725 27.725-27.725s27.725 12.413 27.725 27.725c0 15.313-12.413 27.725-27.725 27.725z"></path>
</symbol>
</defs>
</svg>
